<svg width="40" height="21" viewBox="0 0 40 21" fill="none" xmlns="http://www.w3.org/2000/svg">
<path d="M4.82243 8.25709C4.75281 8.25709 4.7354 8.22227 4.77021 8.17005L5.13576 7.70007C5.17057 7.64785 5.2576 7.61304 5.32723 7.61304H11.5414C11.6111 7.61304 11.6285 7.66526 11.5937 7.71748L11.2977 8.17005C11.2629 8.22227 11.1759 8.27449 11.1237 8.27449L4.82243 8.25709Z" fill="#50b7e0"/>
<path d="M2.19402 9.85865C2.12439 9.85865 2.10698 9.82384 2.1418 9.77162L2.50734 9.30163C2.54215 9.24941 2.62919 9.2146 2.69881 9.2146H10.6363C10.7059 9.2146 10.7407 9.26682 10.7233 9.31904L10.5841 9.7368C10.5667 9.80643 10.497 9.84124 10.4274 9.84124L2.19402 9.85865Z" fill="#50b7e0"/>
<path d="M6.40642 11.4592C6.33679 11.4592 6.31939 11.407 6.3542 11.3548L6.59789 10.9196C6.63271 10.8674 6.70233 10.8152 6.77196 10.8152H10.2533C10.3229 10.8152 10.3577 10.8674 10.3577 10.937L10.3229 11.3548C10.3229 11.4244 10.2533 11.4766 10.2011 11.4766L6.40642 11.4592Z" fill="#50b7e0"/>
<path d="M24.4746 7.94367C23.378 8.22217 22.6295 8.43105 21.5503 8.70956C21.2892 8.77919 21.2718 8.79659 21.0455 8.53549C20.7844 8.23958 20.5929 8.04811 20.2274 7.87404C19.1308 7.33443 18.069 7.49109 17.0768 8.13514C15.8931 8.90104 15.2839 10.0325 15.3013 11.4424C15.3187 12.835 16.2761 13.9838 17.6512 14.1753C18.8348 14.3319 19.827 13.9142 20.6103 13.0264C20.767 12.835 20.9063 12.6261 21.0803 12.3824C20.4537 12.3824 19.6704 12.3824 17.7208 12.3824C17.3553 12.3824 17.2682 12.1561 17.3901 11.8602C17.6164 11.3206 18.0341 10.4154 18.2778 9.96285C18.3301 9.85841 18.4519 9.68434 18.713 9.68434C19.6007 9.68434 22.8732 9.68434 25.0491 9.68434C25.0142 10.1543 25.0142 10.6243 24.9446 11.0943C24.7531 12.3476 24.2832 13.4964 23.5173 14.506C22.264 16.1596 20.6277 17.1866 18.5563 17.4652C16.8505 17.6914 15.2665 17.3607 13.8739 16.3163C12.5858 15.3415 11.8547 14.0534 11.6633 12.452C11.437 10.5547 11.994 8.84882 13.1428 7.35184C14.3787 5.73301 16.015 4.70601 18.0167 4.34047C19.653 4.04455 21.2196 4.23603 22.6295 5.1934C23.5521 5.80264 24.2135 6.63816 24.6487 7.64775C24.7531 7.80441 24.6835 7.89145 24.4746 7.94367Z" fill="#50b7e0"/>
<path d="M30.2363 17.5695C28.6523 17.5347 27.2075 17.0822 25.9891 16.0377C24.9621 15.15 24.318 14.0186 24.1091 12.6782C23.7958 10.7113 24.3354 8.97061 25.5191 7.42141C26.7898 5.75037 28.3216 4.88003 30.393 4.51449C32.1685 4.20116 33.8395 4.37523 35.3539 5.40223C36.729 6.34219 37.582 7.61289 37.8083 9.28393C38.1042 11.6338 37.4253 13.5486 35.8065 15.1848C34.6576 16.3511 33.2477 17.0822 31.6289 17.4129C31.1589 17.4999 30.6889 17.5173 30.2363 17.5695ZM34.3791 10.5372C34.3617 10.3109 34.3617 10.1369 34.3269 9.9628C34.0136 8.23953 32.4296 7.26475 30.7759 7.6477C29.1571 8.01324 28.1127 9.04024 27.7298 10.6765C27.4164 12.0342 28.0779 13.4093 29.3312 13.9663C30.2885 14.3841 31.2459 14.3319 32.1685 13.8619C33.5436 13.1482 34.2921 12.0342 34.3791 10.5372Z" fill="#50b7e0"/>
</svg>
