<svg width="26" height="26" viewBox="0 0 26 26" fill="none" xmlns="http://www.w3.org/2000/svg">
<path opacity="0.1" fill-rule="evenodd" clip-rule="evenodd" d="M0.000244141 12.7208C0.000244141 5.65153 5.731 -0.0792236 12.8002 -0.0792236C19.8695 -0.0792236 25.6002 5.65153 25.6002 12.7208C25.6002 19.79 19.8695 25.5208 12.8002 25.5208C5.731 25.5208 0.000244141 19.79 0.000244141 12.7208Z" fill="white"/>
<path fill-rule="evenodd" clip-rule="evenodd" d="M5.97351 12.7573C5.97351 16.1504 8.4379 18.972 11.661 19.5442V14.6148H9.95476V12.7192H11.661V11.2023C11.661 9.49606 12.7604 8.54852 14.3154 8.54852C14.8079 8.54852 15.3391 8.62416 15.8317 8.69981V10.4442H14.9598C14.1254 10.4442 13.936 10.8611 13.936 11.3923V12.7192H15.756L15.4529 14.6148H13.936V19.5442C17.1591 18.972 19.6235 16.151 19.6235 12.7573C19.6235 8.98248 16.5523 5.89417 12.7985 5.89417C9.04476 5.89417 5.97351 8.98248 5.97351 12.7573Z" fill="#ffc200"/>
</svg>
