<svg width="65" height="64" viewBox="0 0 65 64" fill="none" xmlns="http://www.w3.org/2000/svg">
<path fill-rule="evenodd" clip-rule="evenodd" d="M32.499 0.608398C14.819 0.608398 0.499023 14.9284 0.499023 32.6084C0.499023 46.7684 9.65902 58.7284 22.379 62.9684C23.979 63.2484 24.579 62.2884 24.579 61.4484C24.579 60.6884 24.539 58.1684 24.539 55.4884C16.499 56.9684 14.419 53.5284 13.779 51.7284C13.419 50.8084 11.859 47.9684 10.499 47.2084C9.37902 46.6084 7.77902 45.1284 10.459 45.0884C12.979 45.0484 14.779 47.4084 15.379 48.3684C18.259 53.2084 22.859 51.8484 24.699 51.0084C24.979 48.9284 25.819 47.5284 26.739 46.7284C19.619 45.9284 12.179 43.1684 12.179 30.9284C12.179 27.4484 13.419 24.5684 15.459 22.3284C15.139 21.5284 14.019 18.2484 15.779 13.8484C15.779 13.8484 18.459 13.0084 24.579 17.1284C27.139 16.4084 29.859 16.0484 32.579 16.0484C35.299 16.0484 38.019 16.4084 40.579 17.1284C46.699 12.9684 49.379 13.8484 49.379 13.8484C51.139 18.2484 50.019 21.5284 49.699 22.3284C51.739 24.5684 52.979 27.4084 52.979 30.9284C52.979 43.2084 45.499 45.9284 38.379 46.7284C39.539 47.7284 40.539 49.6484 40.539 52.6484C40.539 56.9284 40.499 60.3684 40.499 61.4484C40.499 62.2884 41.099 63.2884 42.699 62.9684C49.0515 60.8237 54.5715 56.7409 58.4821 51.2947C62.3928 45.8485 64.4971 39.3132 64.499 32.6084C64.499 14.9284 50.179 0.608398 32.499 0.608398Z" fill="#ffc200"/>
</svg>


