<svg width="26" height="27" viewBox="0 0 26 27" fill="none" xmlns="http://www.w3.org/2000/svg">
<path opacity="0.1" fill-rule="evenodd" clip-rule="evenodd" d="M0.000244141 13.7208C0.000244141 6.65153 5.731 0.920776 12.8002 0.920776C19.8695 0.920776 25.6002 6.65153 25.6002 13.7208C25.6002 20.79 19.8695 26.5208 12.8002 26.5208C5.731 26.5208 0.000244141 20.79 0.000244141 13.7208Z" fill="white"/>
<path fill-rule="evenodd" clip-rule="evenodd" d="M12.8008 6.89417C10.9468 6.89417 10.7141 6.90227 9.98593 6.93541C9.25916 6.96869 8.76309 7.08375 8.32902 7.25257C7.88002 7.42693 7.49914 7.66018 7.11969 8.03978C6.73995 8.41923 6.50671 8.8001 6.33177 9.24896C6.16253 9.68317 6.04732 10.1794 6.01461 10.9059C5.98204 11.6341 5.97351 11.8669 5.97351 13.7209C5.97351 15.5749 5.98176 15.8069 6.01476 16.5351C6.04818 17.2618 6.16324 17.7579 6.33191 18.192C6.50642 18.641 6.73967 19.0219 7.11926 19.4013C7.49858 19.7811 7.87945 20.0149 8.32817 20.1892C8.76252 20.3581 9.25874 20.4731 9.98536 20.5064C10.7135 20.5395 10.9461 20.5476 12.8 20.5476C14.6541 20.5476 14.8861 20.5395 15.6143 20.5064C16.3411 20.4731 16.8377 20.3581 17.272 20.1892C17.7209 20.0149 18.1012 19.7811 18.4805 19.4013C18.8603 19.0219 19.0935 18.641 19.2684 18.1921C19.4363 17.7579 19.5515 17.2617 19.5856 16.5352C19.6183 15.807 19.6268 15.5749 19.6268 13.7209C19.6268 11.8669 19.6183 11.6342 19.5856 10.906C19.5515 10.1792 19.4363 9.68317 19.2684 9.2491C19.0935 8.8001 18.8603 8.41923 18.4805 8.03978C18.1008 7.66004 17.721 7.42679 17.2716 7.25257C16.8364 7.08375 16.3401 6.96869 15.6133 6.93541C14.8851 6.90227 14.6533 6.89417 12.7987 6.89417H12.8008ZM12.1884 8.12438C12.3701 8.1241 12.5729 8.12438 12.8008 8.12438C14.6235 8.12438 14.8396 8.13092 15.5594 8.16363C16.225 8.19407 16.5862 8.30529 16.8269 8.39873C17.1454 8.52246 17.3726 8.67038 17.6114 8.90931C17.8503 9.14825 17.9982 9.37581 18.1222 9.69439C18.2157 9.93475 18.327 10.296 18.3573 10.9616C18.39 11.6813 18.3971 11.8974 18.3971 13.7193C18.3971 15.5412 18.39 15.7574 18.3573 16.477C18.3269 17.1426 18.2157 17.5039 18.1222 17.7443C17.9985 18.0628 17.8503 18.2897 17.6114 18.5285C17.3724 18.7674 17.1456 18.9153 16.8269 19.0391C16.5865 19.1329 16.225 19.2439 15.5594 19.2743C14.8397 19.307 14.6235 19.3141 12.8008 19.3141C10.9779 19.3141 10.7619 19.307 10.0422 19.2743C9.37661 19.2436 9.01536 19.1324 8.77458 19.0389C8.456 18.9152 8.22844 18.7673 7.9895 18.5283C7.75057 18.2894 7.60265 18.0624 7.47863 17.7437C7.38519 17.5033 7.27383 17.1421 7.24354 16.4765C7.21083 15.7568 7.20429 15.5406 7.20429 13.7176C7.20429 11.8946 7.21083 11.6795 7.24354 10.9599C7.27398 10.2943 7.38519 9.93304 7.47863 9.6924C7.60237 9.37382 7.75057 9.14626 7.9895 8.90732C8.22844 8.66839 8.456 8.52047 8.77458 8.39645C9.01522 8.30259 9.37661 8.19165 10.0422 8.16107C10.672 8.13263 10.916 8.1241 12.1884 8.12267V8.12438ZM16.4448 9.25791C15.9926 9.25791 15.6256 9.62442 15.6256 10.0768C15.6256 10.5291 15.9926 10.896 16.4448 10.896C16.8971 10.896 17.2641 10.5291 17.2641 10.0768C17.2641 9.62456 16.8971 9.25791 16.4448 9.25791ZM12.8008 10.2151C10.8647 10.2151 9.29501 11.7848 9.29501 13.7209C9.29501 15.657 10.8647 17.226 12.8008 17.226C14.7369 17.226 16.3061 15.657 16.3061 13.7209C16.3061 11.7848 14.7369 10.2151 12.8008 10.2151ZM12.8008 11.4453C14.0575 11.4453 15.0764 12.4641 15.0764 13.7209C15.0764 14.9776 14.0575 15.9965 12.8008 15.9965C11.544 15.9965 10.5252 14.9776 10.5252 13.7209C10.5252 12.4641 11.544 11.4453 12.8008 11.4453Z" fill="#ffc200"/>
</svg>
