<svg width="26" height="27" viewBox="0 0 26 27" fill="none" xmlns="http://www.w3.org/2000/svg">
<path opacity="0.1" fill-rule="evenodd" clip-rule="evenodd" d="M0.400635 13.7208C0.400635 6.65153 6.13139 0.920776 13.2006 0.920776C20.2699 0.920776 26.0006 6.65153 26.0006 13.7208C26.0006 20.79 20.2699 26.5208 13.2006 26.5208C6.13139 26.5208 0.400635 20.79 0.400635 13.7208Z" fill="white"/>
<g clip-path="url(#clip0_1053_21887)">
<path d="M8.57659 8.19617C8.23228 8.19862 7.90277 8.33648 7.6593 8.57995C7.41583 8.82342 7.27797 9.15294 7.27551 9.49725V18.3446C7.27551 19.056 7.86516 19.6457 8.57659 19.6457H17.4239C18.1354 19.6457 18.725 19.056 18.725 18.3446V9.49725C18.725 8.78582 18.1354 8.19617 17.4239 8.19617H8.57659ZM8.57659 9.23703H17.4239C17.5723 9.23703 17.6841 9.34892 17.6841 9.49725V18.3446C17.6849 18.3789 17.6786 18.4131 17.6658 18.445C17.653 18.4769 17.6338 18.5059 17.6095 18.5302C17.5852 18.5545 17.5562 18.5736 17.5243 18.5864C17.4924 18.5993 17.4583 18.6055 17.4239 18.6048H8.57659C8.54221 18.6056 8.50802 18.5994 8.47609 18.5866C8.44417 18.5738 8.41517 18.5546 8.39085 18.5303C8.36653 18.506 8.34739 18.477 8.33459 18.4451C8.32179 18.4132 8.31559 18.379 8.31638 18.3446V9.49725C8.31638 9.34892 8.42827 9.23703 8.57659 9.23703ZM10.1056 10.1317C9.98635 10.1288 9.86772 10.1498 9.75669 10.1934C9.64567 10.2371 9.54449 10.3025 9.45912 10.3858C9.37376 10.4692 9.30592 10.5687 9.2596 10.6787C9.21328 10.7886 9.18942 10.9067 9.18942 11.026C9.18942 11.1453 9.21328 11.2634 9.2596 11.3733C9.30592 11.4833 9.37376 11.5829 9.45912 11.6662C9.54449 11.7495 9.64567 11.8149 9.75669 11.8586C9.86772 11.9022 9.98635 11.9233 10.1056 11.9204C10.3391 11.9147 10.5611 11.818 10.7242 11.6509C10.8873 11.4838 10.9787 11.2595 10.9787 11.026C10.9787 10.7925 10.8873 10.5682 10.7242 10.4011C10.5611 10.234 10.3391 10.1373 10.1056 10.1317ZM14.8051 12.5059C14.0593 12.5059 13.5634 12.9144 13.3583 13.3026H13.3255V12.6198H11.8616V17.5639H13.3906V15.1242C13.3906 14.4799 13.5186 13.8559 14.3175 13.8559C15.1044 13.8559 15.1148 14.5834 15.1148 15.1569V17.5639H16.6433V14.8478C16.6433 13.5186 16.3607 12.5059 14.8056 12.5059H14.8051ZM9.35724 12.6198V17.5639H10.9024V12.6198H9.35724Z" fill="#ffc200"/>
</g>
<defs>
<clipPath id="clip0_1053_21887">
<rect width="12" height="12" fill="white" transform="translate(7.00024 7.92078)"/>
</clipPath>
</defs>
</svg>
