
<svg width="27" height="27" viewBox="0 0 27 27" fill="none" xmlns="http://www.w3.org/2000/svg">
<path opacity="0.1" fill-rule="evenodd" clip-rule="evenodd" d="M0.800293 13.7208C0.800293 6.65153 6.53105 0.920776 13.6003 0.920776C20.6695 0.920776 26.4003 6.65153 26.4003 13.7208C26.4003 20.79 20.6695 26.5208 13.6003 26.5208C6.53105 26.5208 0.800293 20.79 0.800293 13.7208Z" fill="white"/>
<path fill-rule="evenodd" clip-rule="evenodd" d="M13.217 11.3245L13.2438 11.7674L12.7962 11.7131C11.1666 11.5052 9.74306 10.8002 8.53436 9.6161L7.94344 9.02857L7.79124 9.46244C7.46892 10.4296 7.67484 11.451 8.34634 12.138C8.70448 12.5176 8.6239 12.5718 8.00612 12.3459C7.79124 12.2736 7.60322 12.2193 7.58531 12.2464C7.52264 12.3097 7.73752 13.1323 7.90763 13.4577C8.14042 13.9096 8.61494 14.3525 9.13424 14.6146L9.57295 14.8225L9.05366 14.8316C8.55227 14.8316 8.53436 14.8406 8.58808 15.0304C8.76715 15.618 9.47446 16.2417 10.2624 16.5128L10.8175 16.7026L10.334 16.9919C9.61772 17.4077 8.7761 17.6427 7.93449 17.6608C7.53159 17.6698 7.20032 17.706 7.20032 17.7331C7.20032 17.8235 8.29262 18.3297 8.92831 18.5285C10.8354 19.116 13.1006 18.863 14.8017 17.8596C16.0104 17.1456 17.2191 15.7264 17.7832 14.3525C18.0876 13.6204 18.392 12.2826 18.392 11.6408C18.392 11.225 18.4188 11.1708 18.9202 10.6737C19.2157 10.3844 19.4932 10.068 19.547 9.97766C19.6365 9.80592 19.6275 9.80592 19.1709 9.95958C18.4099 10.2308 18.3025 10.1946 18.6785 9.78784C18.956 9.49859 19.2873 8.97434 19.2873 8.82067C19.2873 8.79356 19.153 8.83875 19.0008 8.9201C18.8397 9.01049 18.4815 9.14608 18.2129 9.22743L17.7294 9.38109L17.2907 9.0828C17.049 8.9201 16.7088 8.73932 16.5297 8.68509C16.0731 8.55854 15.3747 8.57662 14.9629 8.72124C13.8437 9.128 13.1364 10.1765 13.217 11.3245Z" fill="#ffc200"/>
</svg>
