<svg width="76" height="52" viewBox="0 0 76 52" fill="none" xmlns="http://www.w3.org/2000/svg">
<path d="M66.097 0.0890045H9.197C4.126 0.0890045 0 4.215 0 9.286V42.008C0 47.079 4.126 51.205 9.197 51.205H66.097C71.168 51.205 75.294 47.079 75.294 42.008V9.28701C75.295 4.21501 71.169 0.0890045 66.097 0.0890045ZM61.603 6.08901L37.647 21.523L13.691 6.08901H61.603ZM66.097 45.206H9.197C7.434 45.206 6 43.771 6 42.009V9.45701L35.796 28.617C35.836 28.642 35.879 28.659 35.92 28.682C35.963 28.706 36.007 28.729 36.051 28.751C36.282 28.87 36.52 28.966 36.763 29.029C36.788 29.036 36.813 29.039 36.838 29.045C37.105 29.108 37.375 29.147 37.645 29.147C37.646 29.147 37.647 29.147 37.647 29.147C37.649 29.147 37.65 29.147 37.651 29.147C37.921 29.147 38.191 29.109 38.458 29.045C38.483 29.039 38.508 29.036 38.533 29.029C38.776 28.966 39.013 28.87 39.245 28.751C39.289 28.729 39.333 28.706 39.376 28.682C39.417 28.659 39.46 28.642 39.5 28.617L69.296 9.45701V42.008C69.295 43.771 67.86 45.206 66.097 45.206Z" fill="white"/>
</svg>
