<svg width="296" height="502" viewBox="0 0 296 502" fill="none" xmlns="http://www.w3.org/2000/svg">
<path d="M0.656006 466.086C0.656006 485.889 15.656 502 34.094 502H261.907C280.345 502 295.345 485.889 295.345 466.086V35.914C295.345 16.111 280.345 0 261.907 0H34.094C15.656 0 0.656006 16.111 0.656006 35.914V466.086V466.086ZM20.656 78.047H275.344V380.417H20.656V78.047ZM20.656 35.914C20.656 27.139 26.684 20 34.094 20H261.907C269.316 20 275.345 27.139 275.345 35.914V58.047H20.656V35.914ZM275.344 466.086C275.344 474.861 269.316 482 261.906 482H34.094C26.684 482 20.656 474.861 20.656 466.086V400.417H275.344V466.086Z" fill="white"/>
<path d="M148 468.83C163.517 468.83 176.14 456.207 176.14 440.69C176.14 425.173 163.517 412.55 148 412.55C132.484 412.55 119.86 425.173 119.86 440.69C119.86 456.207 132.484 468.83 148 468.83ZM148 432.551C152.488 432.551 156.14 436.202 156.14 440.691C156.14 445.18 152.489 448.831 148 448.831C143.511 448.831 139.86 445.18 139.86 440.691C139.86 436.202 143.512 432.551 148 432.551Z" fill="white"/>
<path d="M157.329 30.061H138.671C133.148 30.061 128.671 34.539 128.671 40.061C128.671 45.583 133.148 50.061 138.671 50.061H157.329C162.851 50.061 167.329 45.583 167.329 40.061C167.329 34.539 162.852 30.061 157.329 30.061Z" fill="white"/>
<path d="M49.527 165.85C44.004 165.85 39.527 170.328 39.527 175.85V352.065C39.527 357.587 44.004 362.065 49.527 362.065C55.05 362.065 59.527 357.587 59.527 352.065V175.85C59.527 170.327 55.05 165.85 49.527 165.85Z" fill="white"/>
<path d="M49.527 98.473C44.004 98.473 39.527 102.951 39.527 108.473V135.424C39.527 140.946 44.004 145.424 49.527 145.424C55.05 145.424 59.527 140.946 59.527 135.424V108.473C59.527 102.95 55.05 98.473 49.527 98.473Z" fill="white"/>
</svg>
