<svg width="289" height="300" viewBox="0 0 289 300" fill="none" xmlns="http://www.w3.org/2000/svg">
<path d="M278.391 181.848C280.524 172.093 281.659 161.967 281.659 151.575C281.659 73.658 218.493 10.491 140.573 10.491C132.347 10.491 124.287 11.202 116.445 12.555C103.836 4.611 88.918 0 72.916 0C27.728 0 -8.90302 36.635 -8.90302 81.816C-8.90302 96.92 -4.79401 111.056 2.34299 123.201C0.471985 132.367 -0.511015 141.854 -0.511015 151.574C-0.511015 229.491 62.654 292.658 140.573 292.658C149.399 292.658 158.032 291.841 166.407 290.291C177.925 296.481 191.095 300 205.085 300C250.274 300 286.903 263.369 286.903 218.184C286.903 205.127 283.83 192.797 278.391 181.848ZM212.932 218.998C206.405 228.234 196.762 235.553 184.268 240.747C171.895 245.89 157.063 248.498 140.18 248.498C119.916 248.498 102.927 244.934 89.667 237.9C80.188 232.779 72.371 225.844 66.438 217.287C60.445 208.642 57.405 200.064 57.405 191.793C57.405 186.623 59.385 182.141 63.291 178.473C67.156 174.837 72.109 172.995 78.015 172.995C82.863 172.995 87.044 174.451 90.444 177.323C93.691 180.075 96.478 184.147 98.717 189.406C101.217 195.132 103.943 199.967 106.822 203.775C109.589 207.438 113.57 210.517 118.654 212.92C123.769 215.342 130.664 216.569 139.145 216.569C150.808 216.569 160.371 214.079 167.564 209.167C174.589 204.37 178.005 198.612 178.005 191.563C178.005 185.993 176.222 181.616 172.556 178.181C168.716 174.59 163.652 171.795 157.501 169.878C151.089 167.879 142.384 165.723 131.617 163.469C117.031 160.345 104.632 156.639 94.757 152.45C94.719 152.435 94.68 152.419 94.642 152.402C84.525 148.099 76.371 142.132 70.406 134.666C64.347 127.084 61.277 117.572 61.277 106.391C61.277 95.733 64.5 86.126 70.857 77.839C77.166 69.61 86.38 63.215 98.242 58.827C109.951 54.497 123.879 52.303 139.638 52.303C152.238 52.303 163.316 53.758 172.562 56.633C181.861 59.529 189.701 63.44 195.861 68.252C202.066 73.1 206.681 78.287 209.58 83.674C212.508 89.115 213.992 94.53 213.992 99.768C213.992 104.809 212.045 109.39 208.205 113.383C204.342 117.399 199.467 119.438 193.715 119.438C188.49 119.438 184.401 118.163 181.563 115.649C178.922 113.315 176.184 109.676 173.143 104.44C169.625 97.756 165.368 92.487 160.483 88.774C155.743 85.168 147.817 83.337 136.928 83.337C126.815 83.337 118.59 85.367 112.483 89.371C106.598 93.229 103.739 97.653 103.739 102.894C103.739 106.109 104.659 108.795 106.552 111.107C108.557 113.556 111.385 115.707 114.96 117.495C118.668 119.359 122.489 120.84 126.317 121.897C130.238 122.985 136.817 124.597 145.839 126.681C155.345 128.722 164.198 130.97 172.257 133.376C173.876 133.859 175.476 134.348 177.028 134.844C186.423 137.851 194.542 141.56 201.163 145.866C207.921 150.267 213.272 155.919 217.069 162.666C220.876 169.437 222.805 177.798 222.805 187.51C222.803 199.135 219.481 209.727 212.932 218.998Z" fill="white"/>
</svg>
